Coordinates
version=1
nRows=14
nColumns=36
inDegrees=yes

Units are S.I. units (second, meters, Newtons, ...)
If the header above contains a line with 'inDegrees', this indicates whether rotational values are in degrees (yes) or radians (no).

endheader
time	pelvis_tilt	pelvis_list	pelvis_rotation	pelvis_tx	pelvis_ty	pelvis_tz	hip_flexion_r	hip_adduction_r	hip_rotation_r	knee_angle_r	knee_angle_r_beta	ankle_angle_r	subtalar_angle_r	mtp_angle_r	hip_flexion_l	hip_adduction_l	hip_rotation_l	knee_angle_l	knee_angle_l_beta	ankle_angle_l	subtalar_angle_l	mtp_angle_l	lumbar_extension	lumbar_bending	lumbar_rotation	arm_flex_r	arm_add_r	arm_rot_r	elbow_flex_r	pro_sup_r	arm_flex_l	arm_add_l	arm_rot_l	elbow_flex_l	pro_sup_l
      2.21666670	    -13.12508085	      1.06396842	     -2.83572855	      0.65032583	      0.68695843	      0.17226918	     73.73807406	     -4.72348507	      4.78856204	     85.93572109	      1.49986128	     22.62467047	    -22.00783334	     -7.49999987	     72.65563721	     -5.70789803	      4.91090024	     87.98747230	      1.53567109	     29.28445546	     -1.94213120	     -7.49999987	    -35.02348203	     -1.84448803	     -0.16768804	     86.55778051	      2.43566640	     13.24834630	    118.82605006	     98.73567304	     78.02090644	      3.93710739	     19.35640937	    115.89109346	     96.51878262
      2.23333330	    -14.63745744	      1.59656581	     -2.89665477	      0.63427046	      0.65933159	      0.18203913	     77.88903051	     -4.20519178	      5.59354106	     88.76797779	      1.54929348	     23.67470766	    -22.44148875	     -7.49999987	     76.66216454	     -6.08852840	      4.62103334	     90.48631525	      1.57928413	     30.49669337	     -1.23584901	     -7.49999987	    -35.95813275	     -2.25730822	     -0.28809865	     89.90114626	      3.29185018	     12.70282147	    118.14149172	     99.86109042	     81.27913666	      4.75452561	     18.96713570	    114.81412371	     97.54716072
      2.25000000	    -17.03022475	      1.87558797	     -2.76573153	      0.64757571	      0.65556107	      0.17269062	     81.46119586	     -3.99751074	      6.36036594	     90.29261765	      1.57590347	     24.57949137	    -22.74581895	     -7.49999987	     80.29908338	     -5.64093795	      4.53555698	     92.17078879	      1.60868374	     31.10023152	     -1.58618310	     -7.49999987	    -35.74231206	     -2.14708255	     -0.62623437	     91.57663611	      3.10323953	     12.64101709	    117.75915539	     99.70854655	     82.94103618	      5.48224132	     19.57143650	    113.55028533	     97.31247952
      2.26666670	    -19.36775535	      2.37099200	     -3.07279741	      0.63676691	      0.63217884	      0.17888624	     85.36913623	     -2.87233833	      7.23534788	     91.82415745	      1.60263388	     25.10079365	    -23.62621117	     -7.49999987	     84.43884601	     -5.63112712	      4.47458023	     94.08028483	      1.64201073	     31.96052888	     -2.31480214	     -7.49999987	    -35.61511608	     -2.67780558	     -0.75130611	     94.92144851	      3.36756113	     12.57934951	    117.39945448	     96.58625070	     86.75396994	      5.93670058	     19.87088796	    112.44061521	     94.47345214
      2.28333330	    -22.00993247	      2.57204144	     -2.81984081	      0.64938815	      0.63064565	      0.17170643	     88.17236236	     -2.44946523	      8.11065363	     92.44773424	      1.61351735	     24.60227621	    -25.39453373	     -7.49999987	     87.62005095	     -4.79475546	      4.35097662	     94.88515065	      1.65605829	     30.98898875	     -4.51375891	     -7.49999987	    -35.13172055	     -2.44063887	     -1.10890793	     97.02421148	      3.38731236	     12.09897835	    117.97331611	     96.84600632	     88.64884802	      6.61883219	     20.26862032	    113.02946336	     94.53277798
      2.30000000	    -24.13206284	      2.88656874	     -2.45604068	      0.62117119	      0.60768419	      0.17803163	     92.00561015	     -1.73163683	      9.00509525	     93.32349891	      1.62880233	     23.26454549	    -27.20940012	     -7.49999987	     91.21704587	     -3.94914737	      4.35051466	     95.32299654	      1.66370014	     31.05793230	     -5.96214660	     -7.49999987	    -35.35197915	     -2.68447934	     -1.70188381	    102.71322848	      3.95489319	     11.17918874	    115.47633299	     97.17128681	     94.55870383	      7.32514464	     20.30716868	    110.64625498	     94.73260262
      2.31666670	    -26.80344188	      2.77954440	     -1.83953561	      0.63066713	      0.60860615	      0.17211969	     95.06952270	     -1.23787479	      9.93611954	     93.68389580	      1.63509244	     21.15685680	    -30.07908481	     -7.49999987	     94.05697805	     -2.56815828	      4.68236050	     95.10625173	      1.65991723	     29.24911623	     -9.11661046	     -7.49999987	    -35.15746505	     -2.10372940	     -2.65190252	    106.49351688	      4.35211531	     10.87863160	    115.65757870	     97.40797704	     98.23944794	      8.22396664	     20.25375609	    110.01976794	     94.63820632
      2.33333330	    -28.63770829	      3.02099485	     -1.51294536	      0.60242458	      0.58488006	      0.17453908	     98.88282266	     -0.59393520	     10.77323418	     94.53673210	      1.64997724	     19.81982554	    -31.37992855	     -7.49999987	     97.58185738	     -1.82881024	      4.54918454	     95.62651643	      1.66899756	     28.79147304	    -10.53130625	     -7.49999987	    -35.82909994	     -2.27022327	     -3.14755663	    112.98661048	      5.26929454	      9.94956925	    112.23372855	     95.32974829	    104.79791683	      9.46746359	     19.41466580	    106.52605236	     92.55283660
      2.35000000	    -30.36481213	      2.77705294	     -1.28936360	      0.59643353	      0.58840461	      0.16914179	    102.07055494	     -0.37767748	     11.15571753	     94.46874697	      1.64879067	     17.68202226	    -32.04783983	     -7.49999987	    100.75898444	     -1.37198522	      4.73513068	     95.58784410	      1.66832260	     26.50459565	    -12.08220846	     -7.49999987	    -37.05364181	     -2.13983673	     -3.84880576	    118.87364380	      5.72888232	      8.99510576	    110.14856643	     94.53190722	    111.29129926	     10.94330538	     19.42905116	    103.11717984	     90.05429967
      2.36666670	    -31.76013033	      2.61973268	     -1.54782492	      0.58196007	      0.57852547	      0.17549474	    105.04857188	      0.23430271	     10.82867090	     94.18805381	      1.64389166	     15.72038223	    -32.72038883	     -7.49999987	    103.37539035	     -1.89563726	      5.27498822	     95.08968504	      1.65962809	     25.46958460	    -12.17474347	     -7.49999987	    -38.21485392	     -2.27473662	     -3.89272785	    124.13874833	      7.20253136	      7.77226476	    107.01051189	     94.57976883	    117.01144370	     11.95993590	     18.72222266	     99.88033246	     89.95054442
      2.38333330	    -33.38394969	      2.63803633	     -1.89793211	      0.59421385	      0.58042480	      0.16927333	    107.20780895	      0.15811921	     10.38709035	     93.93293618	      1.63943901	     14.43228366	    -32.87290384	     -7.49999987	    105.71694229	     -2.45813294	      5.63367694	     95.14882545	      1.66066028	     24.30337127	    -12.44369051	     -7.49999987	    -38.57105233	     -2.22471832	     -3.92330582	    127.12190609	      7.80562404	      7.97982185	    105.49524110	     92.46358581	    120.31152624	     12.95606009	     18.61013442	     97.95958280	     87.74082387
      2.40000000	    -34.64084642	      2.91283296	     -2.41405444	      0.59303783	      0.57580832	      0.17260845	    108.63240868	      0.24622172	      9.81866354	     93.64785137	      1.63446334	     13.85464931	    -33.15089252	     -7.49999987	    107.35190969	     -3.63945938	      5.49615840	     95.66160439	      1.66960996	     24.40400769	    -11.88041475	     -7.49999987	    -38.83125176	     -2.62704016	     -3.49504729	    128.23728481	      9.03182568	      8.57301533	    104.81960151	     87.95890920	    121.83724160	     13.87895270	     18.25943219	     97.53754307	     83.58443538
      2.41666670	    -35.57673956	      3.24722578	     -3.41109230	      0.57942629	      0.57978181	      0.16268108	    109.31401327	      0.26858316	      9.41979886	     91.93845415	      1.60462873	     12.60953635	    -33.14488208	     -7.49999987	    108.69904706	     -4.59193548	      5.25286120	     95.66888831	      1.66973709	     23.44550251	    -12.48474523	     -7.49999987	    -39.60064431	     -3.18636012	     -3.21844686	    129.76518758	      9.71111514	      8.13880619	    102.69555053	     94.92609591	    123.72990079	     14.65732019	     17.45978389	     95.57145467	     85.71631866
      2.43333330	    -36.28720685	      3.73098597	     -4.45667061	      0.57236053	      0.57442840	      0.16089912	    109.96182000	      0.48483055	      9.18600051	     90.38985534	      1.57760059	     11.68327854	    -33.06516209	     -7.49999987	    109.74360256	     -5.38920529	      4.92226853	     95.44437274	      1.66581856	     23.10222616	    -12.96026301	     -7.49999987	    -40.24045277	     -3.85777231	     -2.17538426	    131.23386913	     10.29812750	      8.64663858	    100.15139507	     91.10772181	    125.39820672	     15.53194452	     16.09645860	     94.23134956	     82.92460471
